<?xml version="1.0" encoding="UTF-8" standalone="no"?><!DOCTYPE svg PUBLIC "-//W3C//DTD SVG 1.1//EN" "http://www.w3.org/Graphics/SVG/1.1/DTD/svg11.dtd"><svg width="100%" height="100%" viewBox="0 0 600 600" version="1.1" xmlns="http://www.w3.org/2000/svg" xmlns:xlink="http://www.w3.org/1999/xlink" xml:space="preserve" xmlns:serif="http://www.serif.com/" style="fill-rule:evenodd;clip-rule:evenodd;stroke-linejoin:round;stroke-miterlimit:2;"><path d="M241.304,84.446c8.615,-0.596 15.143,5.335 24.182,5.947c4.928,0.33 10.059,-0.659 14.908,-1.349c15.363,-2.213 28.12,-10.232 42.385,-13.276c24.386,-5.225 47.752,28.513 68.685,39.105c12.271,6.199 32.467,7.768 38.211,18.674c2.668,5.069 0.518,15.316 1.82,21.201c1.836,8.269 4.425,15.723 10.247,22.141c16.744,18.47 48.96,15.74 59.6,42.919c2.275,5.806 -2.009,13.699 0.282,19.192c3.013,7.202 7.187,3.028 15.739,6.779c10.499,4.629 8.223,5.602 4.488,18.014c-4.707,15.599 -3.923,24.402 -2.51,40.738c0.988,11.534 -1.271,13.024 -8.521,21.294c-11.299,12.884 -18.501,27.101 -23.288,43.405c-5.821,19.882 2.747,29.784 -1.49,50.875c-2.574,12.695 -25.955,-2.543 -37.16,7.595c-15.504,14.029 -8.097,37.755 -16.273,55.142c-11.11,23.602 -22.518,23.727 -45.115,17.482c-5.539,-1.538 -14.06,-5.995 -19.741,-5.869c-7.783,0.172 -4.3,1.067 -11.691,6.198c-12.13,8.443 -21.608,2.228 -36.83,5.132c-10.153,1.93 -14.719,5.602 -23.601,12.036c-18.485,13.432 -33.487,4.645 -53.558,-3.233c-10.467,-4.096 -22.691,-7.47 -32.138,-13.072c-7.783,-4.629 -15.629,-2.259 -22.094,-10.247c-9.887,-12.24 -0.079,-32.185 -13.919,-41.129c-10.561,-6.827 -32.436,0.031 -37.38,-5.351c-8.128,-8.898 -3.389,-29.784 0.612,-39.341c5.54,-13.229 4.316,-9.18 -1.38,-20.635c-5.226,-10.499 -0.393,-22.958 -4.426,-33.77c-3.891,-10.451 -14.484,-18.392 -18.642,-29.125c-3.044,-7.846 -2.448,-16.901 -6.057,-25.563c-6.042,-14.515 -37.238,-19.6 -30.742,-33.268c13.998,-29.407 17.717,-15.096 36.611,-52.585c11.141,-22.063 27.288,-17.669 42.745,-29.642c7.847,-6.073 9.306,-3.563 11.942,-11.44c2.825,-8.427 -2.055,-17.623 2.448,-26.646c3.343,-6.7 11.801,-15.755 19.286,-16.947c10.592,-1.664 8.427,3.86 16.807,-3.782c5.649,-5.116 12.899,-11.534 18.124,-16.932c5.618,-5.822 8.317,-20.024 17.434,-20.667Z" style="fill-rule:nonzero;"/></svg>