<?xml version="1.0" encoding="UTF-8" standalone="no"?><!DOCTYPE svg PUBLIC "-//W3C//DTD SVG 1.1//EN" "http://www.w3.org/Graphics/SVG/1.1/DTD/svg11.dtd"><svg width="100%" height="100%" viewBox="0 0 600 600" version="1.1" xmlns="http://www.w3.org/2000/svg" xmlns:xlink="http://www.w3.org/1999/xlink" xml:space="preserve" xmlns:serif="http://www.serif.com/" style="fill-rule:evenodd;clip-rule:evenodd;stroke-linejoin:round;stroke-miterlimit:2;"><path d="M134.801,431.223c10.488,26.903 66.118,82.533 90.285,84.813c56.998,5.472 84.358,-4.56 103.509,-19.151c116.049,28.727 84.814,-72.046 164.383,-132.464c18.012,-13.68 36.707,-104.421 23.939,-127.676c-10.943,-20.292 -21.431,-34.883 -31.463,-46.055c-21.659,-42.179 -75.921,-82.534 -104.421,-95.529c-89.145,-39.899 -157.543,22.115 -215.909,75.694c-46.283,-10.716 -70.222,33.287 -80.254,81.621c-5.472,11.856 -6.611,22.799 -4.788,33.515c-2.051,23.027 -1.368,44.459 1.14,58.366c7.068,40.355 27.132,67.486 53.579,86.866Z" style="fill-rule:nonzero;"/></svg>