<?xml version="1.0" encoding="UTF-8" standalone="no"?><!DOCTYPE svg PUBLIC "-//W3C//DTD SVG 1.1//EN" "http://www.w3.org/Graphics/SVG/1.1/DTD/svg11.dtd"><svg width="100%" height="100%" viewBox="0 0 600 600" version="1.1" xmlns="http://www.w3.org/2000/svg" xmlns:xlink="http://www.w3.org/1999/xlink" xml:space="preserve" xmlns:serif="http://www.serif.com/" style="fill-rule:evenodd;clip-rule:evenodd;stroke-linejoin:round;stroke-miterlimit:2;"><path d="M90.548,285.71c4.846,6.391 13.288,8.948 17.727,15.592c4.439,6.672 2.318,9.706 2.177,16.729c-0.084,4.678 2.936,8.808 6.701,12.853c4.045,8.189 9.65,15.62 14.285,22.264c1.068,12.825 -1.938,23.935 5.886,33.262c-2.43,5.633 -5.479,11.027 -5.872,17.573c-0.379,6.56 4.846,38.811 8.484,43.46c10.718,13.71 33.642,-7.206 41.185,7.347c7.403,14.257 -21.842,46.621 5.801,47.407c8.119,0.225 7.136,-11.574 14.103,-11.265c5.436,0.239 7.164,7.416 11.49,8.526c19.216,4.916 55.302,24.82 76.063,22.812c7.304,-0.703 18.556,-10.001 29.751,-18.289c3.722,0.211 6.04,-1.433 10.226,-1.461c10.184,-0.084 16.786,5.366 27.391,-0.871c3.68,-2.177 6.054,-4.438 7.964,-6.447c18.472,5.478 40.567,13.077 52.394,3.259c38.179,-31.647 22.784,-60.345 31.83,-69.756c7.403,-2.936 14.412,2.458 25.003,-1.967c10.058,-4.185 16.786,-9.579 15.522,-21.056c-0.66,-5.871 -4.312,-9.228 -7.178,-13.063c5.857,-17.643 6.588,-35.931 20.059,-52.534c12.473,-15.382 15.409,-11.42 16.729,-29.948c0.632,-8.793 -4.481,-17.629 -3.511,-26.548c0.463,-4.298 7.121,-13.12 7.767,-20.944c0.759,-9.369 1.068,-16.561 -5.169,-23.977c-3.694,-4.383 -9.678,-5.282 -15.226,-6.335c0.098,-2.36 0.14,-4.692 -0.338,-6.813c-3.3,-14.679 -17.951,-21.014 -26.351,-32.532c-8.063,-11.069 -26.773,-7.248 -34.162,-18.752c-7.683,-11.982 1.166,-38.193 -12.951,-44.29c-11.939,-5.155 -24.595,-7.824 -36.409,-13.611c-20.002,-9.79 -38.515,-35.735 -60.976,-38.417c-17.896,-2.136 -17.193,6.672 -34.035,10.352c-51.214,11.181 -15.03,-4.312 -49.95,-1.096c-24.68,2.262 -21.955,22.728 -31.17,26.829c-5.731,2.543 -8.933,6.223 -11.602,10.198c-12.361,-2.121 -21.688,7.234 -29.372,15.171c-12.136,12.515 -13.007,23.977 -12.515,36.409c-5.942,3.216 -12.558,6.012 -14.356,12.81c-6.448,24.175 -20.48,-2.107 -34.19,24.231c-8.835,16.982 20.143,25.789 5.099,32.532c-12.234,5.478 -28.5,-5.071 -39.808,11.968c-6.574,9.888 4.888,19.679 11.504,28.388Z" style="fill-rule:nonzero;"/></svg>