<?xml version="1.0" encoding="UTF-8" standalone="no"?><!DOCTYPE svg PUBLIC "-//W3C//DTD SVG 1.1//EN" "http://www.w3.org/Graphics/SVG/1.1/DTD/svg11.dtd"><svg width="100%" height="100%" viewBox="0 0 600 600" version="1.1" xmlns="http://www.w3.org/2000/svg" xmlns:xlink="http://www.w3.org/1999/xlink" xml:space="preserve" xmlns:serif="http://www.serif.com/" style="fill-rule:evenodd;clip-rule:evenodd;stroke-linejoin:round;stroke-miterlimit:2;"><path d="M323.919,489.182c29.587,37.462 75.824,18.112 113.961,-13.275c11.812,-5.85 19.575,-13.613 24.862,-23.175c16.087,-16.65 29.025,-33.862 35.775,-46.237c19.799,-35.999 21.374,-69.749 12.824,-101.586c8.775,-27.449 0.225,-105.861 -17.099,-122.848c-40.95,-40.162 -68.737,-49.612 -92.811,-49.949c-72.674,-95.624 -111.486,2.925 -211.61,-0c-22.724,-0.675 -94.273,58.274 -98.998,84.374c-4.05,22.837 -5.175,40.949 -4.275,55.911c-9.563,46.462 7.2,112.161 21.374,140.061c44.437,87.186 136.911,81.899 215.997,76.724Z" style="fill-rule:nonzero;"/></svg>