<?xml version="1.0" encoding="UTF-8" standalone="no"?><!DOCTYPE svg PUBLIC "-//W3C//DTD SVG 1.1//EN" "http://www.w3.org/Graphics/SVG/1.1/DTD/svg11.dtd"><svg width="100%" height="100%" viewBox="0 0 600 600" version="1.1" xmlns="http://www.w3.org/2000/svg" xmlns:xlink="http://www.w3.org/1999/xlink" xml:space="preserve" xmlns:serif="http://www.serif.com/" style="fill-rule:evenodd;clip-rule:evenodd;stroke-linejoin:round;stroke-miterlimit:2;"><path d="M262.852,34.679c21.24,-2.815 41.425,-2.766 59.85,-0.873c2.869,0.213 5.682,0.612 8.458,1.019c2.776,0.41 5.525,0.75 8.219,1.209c2.494,0.507 4.969,0.948 7.406,1.41c9.576,1.602 19.356,3.803 29.239,6.695c19.804,5.947 40.219,14.602 59.776,26.533c19.46,12.021 38.33,26.877 54.783,44.908c4.22,4.388 8.051,9.171 11.987,13.89c1.925,2.395 3.72,4.903 5.589,7.357l2.772,3.716l2.6,3.847c7.089,10.17 13.23,21.079 18.733,32.32c1.328,2.843 2.723,5.652 3.981,8.517c1.197,2.895 2.395,5.787 3.596,8.686c1.257,2.891 2.183,5.898 3.28,8.838c1.078,2.944 2.111,5.902 2.973,8.928c0.895,3.022 1.873,6.007 2.679,9.036c0.757,3.037 1.518,6.077 2.283,9.129c0.787,3.037 1.287,6.164 1.925,9.208l0.963,4.902l1.164,7.813c5.958,40.494 0.682,81.552 -10.122,113.566c-0,-0 -0.194,0.727 -0.597,1.783c-0.388,1.06 -0.91,2.47 -1.429,3.88c-1.044,2.817 -2.085,5.634 -2.085,5.634c-0,-0 -0.485,1.425 -1.105,2.802c-0.589,1.384 -1.179,2.768 -1.179,2.768c-0.787,1.813 -1.421,3.279 -2.141,4.936c-1.306,3.197 -3.037,6.361 -4.533,9.472c-0.769,1.534 -1.522,3.048 -2.254,4.511c-0.794,1.399 -1.559,2.75 -2.29,4.037c-1.53,2.656 -2.94,5.2 -4.376,7.558c-1.482,2.269 -2.911,4.455 -4.28,6.555c-2.623,4.156 -5.357,7.522 -7.596,10.491c-2.253,3.037 -4.357,5.369 -6.1,7.227c-1.738,1.862 -3.13,3.231 -4.219,4.167c-1.963,1.571 -2.754,1.429 -1.589,-1.443c0.287,-0.709 0.679,-1.567 1.119,-2.489c0.578,-1.108 1.41,-2.559 1.828,-3.447c0.739,-1.321 1.511,-2.705 2.309,-4.134c0.858,-1.615 1.743,-3.276 2.619,-4.932c0.959,-1.75 1.94,-3.548 2.955,-5.399c0.996,-1.996 2.022,-4.044 3.074,-6.144c2.246,-4.224 4.339,-8.962 6.578,-13.883c3.892,-9.019 7.906,-18.903 11.354,-30.173c-1.489,2.476 -2.705,3.944 -3.331,3.448c-0.451,-0.366 -0.582,-1.761 -0.283,-4.489c0.302,-2.727 1.115,-6.764 2.04,-12.561c0.512,-2.862 1.153,-6.123 1.642,-9.824c0.56,-3.682 1.254,-7.734 1.694,-12.203c1.235,-8.887 1.742,-18.863 2.093,-28.959c0.186,-20.333 -1.675,-40.968 -6.16,-59.939c-4.35,-19.102 -10.636,-36.67 -18.538,-52.526c-3.241,-6.516 -6.787,-12.969 -10.661,-19.296c-0.596,-0.941 -1.198,-1.876 -1.806,-2.805l-1.394,-1.917c-1.802,-2.671 -3.832,-5.021 -5.574,-7.379c-0.895,-1.179 -1.757,-2.313 -2.593,-3.41c-0.891,-1.075 -1.753,-2.115 -2.589,-3.123c-1.746,-2.104 -3.044,-3.671 -4.492,-5.424c0,-0 -0.257,-0.344 -0.698,-0.814c-0.432,-0.474 -1.011,-1.104 -1.589,-1.738c-1.153,-1.265 -2.306,-2.526 -2.306,-2.526c-3.021,-3.481 -6.465,-6.854 -9.879,-10.282c-1.667,-1.772 -3.529,-3.388 -5.35,-5.067c-1.839,-1.664 -3.637,-3.398 -5.536,-5.047c-3.925,-3.168 -7.682,-6.638 -11.894,-9.66c-2.067,-1.563 -4.138,-3.13 -6.219,-4.704c-2.161,-1.478 -4.328,-2.962 -6.503,-4.451c-1.09,-0.739 -2.16,-1.515 -3.272,-2.231l-3.388,-2.082c-2.268,-1.38 -4.507,-2.832 -6.809,-4.175c-9.304,-5.301 -18.978,-10.159 -29.055,-14.337c-10.129,-4.029 -20.535,-7.667 -31.291,-10.368c-8.616,-2.121 -17.378,-3.91 -26.273,-5.15l-85.659,3.868c-13.461,3.35 -26.753,7.941 -39.63,13.822c-9.797,4.581 -19.426,9.696 -28.664,15.587c-9.155,6.003 -18.102,12.468 -26.459,19.758c-16.703,14.536 -31.634,31.608 -43.766,50.713c-6.078,9.499 -11.599,19.442 -16.162,29.877l-1.769,3.891l-1.585,3.977c-1.019,2.668 -2.164,5.29 -3.093,7.999l-2.761,8.1c-0.918,2.697 -1.608,5.469 -2.429,8.211c-3.018,11.021 -5.484,22.296 -6.767,33.783c-1.077,9.208 -1.746,18.453 -1.791,27.757c0.028,4.6 0.197,9.207 0.495,13.809c1.391,23.396 6.622,47.736 16.229,71.946c9.469,24.16 24.153,48.123 42.692,68.953c9.17,10.259 18.81,19.516 28.872,27.529c10.051,8.018 20.303,14.991 30.541,21.031c10.196,5.794 20.672,10.883 31.178,15.196c4.817,1.868 9.623,3.607 14.4,5.19c10.73,3.206 21.708,5.659 32.813,7.326c-1.792,-0.399 -3.474,-0.772 -5.047,-1.12c-2.097,-0.597 -3.996,-1.134 -5.72,-1.623c-3.432,-0.977 -6.084,-1.802 -7.938,-2.585l-9.853,-2.332l-0.001,-0l0,-0c0.653,0.559 -2.653,-0.407 -9.875,-2.877c-3.522,-1.436 -8.081,-3.13 -13.42,-5.596c-2.675,-1.28 -5.559,-2.664 -8.667,-4.149c-3.044,-1.667 -6.301,-3.451 -9.775,-5.35c-13.725,-7.857 -30.227,-19.404 -47.135,-35.95c-8.361,-8.335 -16.915,-17.822 -24.911,-28.824c-7.972,-11.006 -15.535,-23.389 -22.108,-37.144c-13.084,-27.385 -22.292,-60.44 -23.146,-96.244c-0.433,-17.837 1.115,-36.283 4.902,-54.679c3.854,-18.382 10.095,-36.644 18.494,-54.108c2.052,-4.399 4.488,-8.63 6.737,-12.965c2.552,-4.145 4.869,-8.387 7.611,-12.439c2.735,-4.047 5.373,-8.181 8.406,-12.061c1.474,-1.959 2.936,-3.906 4.398,-5.854c1.56,-1.869 3.119,-3.738 4.69,-5.619c3.044,-3.831 6.492,-7.338 9.801,-10.972c3.358,-3.585 6.906,-6.827 10.387,-10.241c1.824,-1.604 3.656,-3.212 5.488,-4.824c1.824,-1.619 3.656,-3.235 5.603,-4.716c0.855,-0.675 2.146,-1.697 3.325,-2.623l3.555,-2.805l7.376,-5.212c9.961,-6.73 20.519,-12.871 32.036,-18.083c2.802,-1.228 5.932,-2.466 8.757,-3.634c1.436,-0.616 2.992,-1.187 4.469,-1.66c1.47,-0.493 2.813,-0.944 4.403,-1.474c1.443,-0.463 2.865,-0.914 4.26,-1.358c1.28,-0.31 2.735,-0.668 4.048,-0.985c2.559,-0.619 4.708,-0.97 6.245,-1.134c3.011,-0.116 2.19,1.089 -3.107,4.014c-1.295,0.702 -2.847,1.481 -4.503,2.306c-0.844,0.392 -1.694,0.873 -2.586,1.358l-2.865,1.518l-1.22,0.635c-1.403,0.72 -2.85,1.466 -4.335,2.223c-3.477,1.944 -5.261,2.94 -7.574,4.231c-9.077,5.279 -18.079,10.842 -25.69,16.572c-7.794,5.563 -14.435,11.271 -20.546,16.647c-2.955,2.813 -5.79,5.514 -8.532,8.122c-2.616,2.75 -5.141,5.406 -7.596,7.984c-2.422,2.794 -4.571,5.275 -6.637,7.656c-2.09,2.365 -3.839,4.85 -5.828,7.32c-7.547,9.916 -14.427,20.176 -20.146,30.827c-5.735,10.641 -10.562,21.471 -14.543,32.324c-3.858,10.902 -6.794,21.818 -9.021,32.574c-2.172,10.782 -3.362,21.43 -4.078,31.816c-0.526,10.402 -0.433,20.546 0.268,30.381c1.511,19.668 5.399,38.032 10.839,54.835c5.603,16.808 12.621,31.869 20.862,45.736c8.234,13.849 17.64,26.306 27.705,37.301c10.059,10.995 20.789,20.531 31.656,28.742c10.887,8.178 21.826,15.189 32.705,20.736c10.868,5.57 21.433,10.174 31.6,13.644c9.558,3.268 21.669,6.715 34.506,9.17c3.179,0.538 6.443,1.093 9.749,1.653c3.261,0.53 6.521,0.862 9.655,1.332c3.093,0.511 6.048,0.69 8.51,1.037c1.258,0.153 2.321,0.317 3.306,0.47l0.362,0.056l1.305,0.19l0.012,0.008l0,0c30.48,-2.075 61.692,-10.199 89.91,-23.745c18.427,-9.006 36.227,-20.221 51.288,-32.67c1.824,-1.504 3.716,-3.063 5.544,-4.571c1.858,-1.443 3.507,-3.111 5.201,-4.57c1.582,-1.399 3.335,-2.951 5.081,-4.496c1.593,-1.514 3.175,-3.018 4.6,-4.372c1.407,-1.31 2.806,-2.612 4.138,-3.854c1.179,-1.056 2.216,-2.138 3.257,-3.111l1.507,-1.433l1.231,-1.078c0.761,-0.635 1.511,-1.258 2.246,-1.873c3.078,-2.272 3.339,-0.974 1.153,3.32c-0.56,1.09 -1.183,2.254 -2.089,3.768c-0.866,1.407 -1.694,2.985 -3.063,4.854c-1.157,1.649 -2.362,3.309 -3.724,5.145c-1.317,1.75 -2.675,3.723 -4.305,5.57c-3.205,3.738 -6.525,7.872 -10.469,11.786c-1.947,1.981 -3.884,4.089 -5.999,6.085c-2.171,1.996 -4.358,4.01 -6.563,6.036c-9.11,7.977 -19.43,15.938 -30.768,22.971c-11.032,6.797 -22.638,12.763 -34.506,17.777c-11.901,4.94 -24.079,8.801 -36.111,11.816c-10.388,2.602 -20.763,4.291 -30.972,5.486l-0.314,0.086c-3.731,1.104 -8.816,1.824 -14.786,2.791c-5.988,0.634 -12.886,1.362 -20.273,1.444c-14.808,0.361 -31.581,-0.877 -48.489,-4.138c-16.935,-3.242 -34.048,-8.432 -50.549,-15.516c-16.535,-7.096 -32.447,-16.065 -47.244,-26.631c-14.759,-10.506 -28.873,-23.101 -40.468,-35.872c-23.642,-25.869 -40.651,-55.473 -51.299,-84.734c-10.752,-29.369 -15.471,-58.485 -15.792,-85.548c-0.206,-6.779 0.156,-13.431 0.41,-19.96c0.56,-6.514 1.004,-12.92 1.974,-19.15c0.72,-6.264 2.033,-12.319 3.111,-18.293c1.444,-5.894 2.608,-11.744 4.358,-17.329c3.059,-11.29 7.185,-21.889 11.386,-32.029c4.522,-10.01 16.402,-31.502 17.354,-33.04c4.803,-7.949 9.956,-15.507 15.387,-22.635c14.316,-18.85 30.451,-34.845 47.601,-48.156c10.411,-8.267 23.64,-17.375 40.418,-26.073c13.333,-6.846 28.932,-13.386 46.795,-18.456c11.574,-3.335 24.066,-5.905 37.337,-7.495Z" style="fill-rule:nonzero;"/></svg>